<svg width="85" height="23" viewBox="0 0 85 23" fill="none" xmlns="http://www.w3.org/2000/svg">
<path d="M0.948242 22H4.22949V14.7783H8.81445C12.96 14.7783 15.8311 11.9512 15.8311 7.82031V7.79102C15.8311 3.64551 12.96 0.862305 8.81445 0.862305H0.948242V22ZM7.99414 3.63086C10.8506 3.63086 12.4912 5.16895 12.4912 7.80566V7.83496C12.4912 10.4863 10.8506 12.0244 7.99414 12.0244H4.22949V3.63086H7.99414ZM18.3213 22H21.4854V12.8154C21.4854 10.5156 22.7451 9.18262 24.7812 9.18262C25.3965 9.18262 25.9531 9.25586 26.2021 9.3584V6.41406C25.9531 6.37012 25.5576 6.29688 25.1035 6.29688C23.3457 6.29688 22.0566 7.4248 21.5586 9.22656H21.4854V6.58984H18.3213V22ZM34.0684 22.3076C37.8037 22.3076 40.1768 20.0811 40.6748 17.6348L40.7041 17.4736H37.7012L37.6572 17.5908C37.2617 18.748 36.0166 19.7148 34.1416 19.7148C31.6221 19.7148 30.0254 18.0156 29.9668 15.1006H40.8799V14.0312C40.8799 9.40234 38.2285 6.29688 33.9072 6.29688C29.5859 6.29688 26.8027 9.51953 26.8027 14.3389V14.3535C26.8027 19.2168 29.542 22.3076 34.0684 22.3076ZM33.9219 8.88965C35.9873 8.88965 37.4814 10.1934 37.7451 12.8594H30.0107C30.2891 10.2812 31.8711 8.88965 33.9219 8.88965ZM49.1123 22.3076C52.7451 22.3076 55.3818 20.374 55.3818 17.5615V17.5469C55.3818 15.335 54.1807 14.0898 51.0312 13.3574L48.5264 12.7861C46.8711 12.3906 46.2412 11.7461 46.2412 10.7939V10.7793C46.2412 9.54883 47.3105 8.74316 49.0098 8.74316C50.7969 8.74316 51.8516 9.68066 52.042 11.0283L52.0566 11.1309H55.0303L55.0156 10.9551C54.8545 8.33301 52.6572 6.29688 49.0098 6.29688C45.4648 6.29688 43.0625 8.18652 43.0625 10.9404V10.9551C43.0625 13.1963 44.5127 14.6025 47.4424 15.2764L49.9619 15.8477C51.6172 16.2432 52.1738 16.8145 52.1738 17.8105V17.8252C52.1738 19.0703 51.0312 19.8613 49.127 19.8613C47.1787 19.8613 46.124 19.0264 45.8311 17.6055L45.8018 17.459H42.667L42.6816 17.5908C43.0039 20.4033 45.2598 22.3076 49.1123 22.3076ZM63.6143 22.3076C67.2471 22.3076 69.8838 20.374 69.8838 17.5615V17.5469C69.8838 15.335 68.6826 14.0898 65.5332 13.3574L63.0283 12.7861C61.373 12.3906 60.7432 11.7461 60.7432 10.7939V10.7793C60.7432 9.54883 61.8125 8.74316 63.5117 8.74316C65.2988 8.74316 66.3535 9.68066 66.5439 11.0283L66.5586 11.1309H69.5322L69.5176 10.9551C69.3564 8.33301 67.1592 6.29688 63.5117 6.29688C59.9668 6.29688 57.5645 8.18652 57.5645 10.9404V10.9551C57.5645 13.1963 59.0146 14.6025 61.9443 15.2764L64.4639 15.8477C66.1191 16.2432 66.6758 16.8145 66.6758 17.8105V17.8252C66.6758 19.0703 65.5332 19.8613 63.6289 19.8613C61.6807 19.8613 60.626 19.0264 60.333 17.6055L60.3037 17.459H57.1689L57.1836 17.5908C57.5059 20.4033 59.7617 22.3076 63.6143 22.3076ZM76.8711 22.2783C78.9072 22.2783 80.6943 21.2236 81.5879 19.5684H81.6465V22H84.8252V11.3799C84.8252 8.28906 82.4375 6.29688 78.6729 6.29688C74.8789 6.29688 72.5791 8.33301 72.3594 10.9844L72.3447 11.1455H75.333L75.3623 11.0137C75.626 9.7832 76.7539 8.91895 78.585 8.91895C80.5479 8.91895 81.6465 9.94434 81.6465 11.6436V12.8008L77.457 13.0498C73.8096 13.2695 71.7295 14.9102 71.7295 17.5908V17.6201C71.7295 20.3887 73.7949 22.2783 76.8711 22.2783ZM74.9229 17.5469V17.5176C74.9229 16.2139 75.9775 15.3789 77.8818 15.2617L81.6465 15.0273V16.2285C81.6465 18.2354 79.9619 19.7441 77.7354 19.7441C76.0361 19.7441 74.9229 18.8945 74.9229 17.5469Z" fill="white"/>
</svg>
