<svg width="90" height="20" viewBox="0 0 90 20" fill="none" xmlns="http://www.w3.org/2000/svg">
<path d="M49.4498 4.55008C49.2521 4.55008 49.0587 4.60873 48.8943 4.71861C48.7298 4.82849 48.6016 4.98467 48.526 5.1674C48.4503 5.35012 48.4305 5.55119 48.4691 5.74517C48.5076 5.93915 48.6029 6.11734 48.7427 6.25719C48.8826 6.39704 49.0608 6.49228 49.2547 6.53087C49.4487 6.56945 49.6498 6.54965 49.8325 6.47396C50.0152 6.39827 50.1714 6.2701 50.2813 6.10565C50.3912 5.9412 50.4498 5.74786 50.4498 5.55008C50.4498 5.28486 50.3445 5.03051 50.1569 4.84297C49.9694 4.65544 49.7151 4.55008 49.4498 4.55008ZM53.2832 6.56675C53.267 5.87533 53.1375 5.19125 52.8998 4.54175C52.6879 3.98603 52.3582 3.48281 51.9332 3.06675C51.5205 2.6396 51.0161 2.3119 50.4582 2.10841C49.8104 1.86355 49.1255 1.73109 48.4332 1.71675C47.5498 1.66675 47.2665 1.66675 44.9998 1.66675C42.7332 1.66675 42.4498 1.66675 41.5665 1.71675C40.8741 1.73109 40.1893 1.86355 39.5415 2.10841C38.9846 2.31396 38.4806 2.64138 38.0665 3.06675C37.6394 3.4794 37.3117 3.98378 37.1082 4.54175C36.8633 5.18953 36.7308 5.87438 36.7165 6.56675C36.6665 7.45008 36.6665 7.73342 36.6665 10.0001C36.6665 12.2667 36.6665 12.5501 36.7165 13.4334C36.7308 14.1258 36.8633 14.8106 37.1082 15.4584C37.3117 16.0164 37.6394 16.5208 38.0665 16.9334C38.4806 17.3588 38.9846 17.6862 39.5415 17.8917C40.1893 18.1366 40.8741 18.2691 41.5665 18.2834C42.4498 18.3334 42.7332 18.3334 44.9998 18.3334C47.2665 18.3334 47.5498 18.3334 48.4332 18.2834C49.1255 18.2691 49.8104 18.1366 50.4582 17.8917C51.0161 17.6883 51.5205 17.3606 51.9332 16.9334C52.36 16.5189 52.6901 16.0152 52.8998 15.4584C53.1375 14.8089 53.267 14.1248 53.2832 13.4334C53.2832 12.5501 53.3332 12.2667 53.3332 10.0001C53.3332 7.73342 53.3332 7.45008 53.2832 6.56675ZM51.7832 13.3334C51.7771 13.8624 51.6813 14.3865 51.4998 14.8834C51.3668 15.2461 51.1531 15.5738 50.8748 15.8417C50.6045 16.1172 50.2775 16.3304 49.9165 16.4667C49.4196 16.6482 48.8955 16.744 48.3665 16.7501C47.5332 16.7917 47.2248 16.8001 45.0332 16.8001C42.8415 16.8001 42.5332 16.8001 41.6998 16.7501C41.1506 16.7604 40.6037 16.6758 40.0832 16.5001C39.738 16.3568 39.426 16.1441 39.1665 15.8751C38.8899 15.6074 38.6789 15.2794 38.5498 14.9167C38.3464 14.4127 38.2335 13.8767 38.2165 13.3334C38.2165 12.5001 38.1665 12.1917 38.1665 10.0001C38.1665 7.80841 38.1665 7.50008 38.2165 6.66675C38.2202 6.12596 38.319 5.59004 38.5082 5.08341C38.6549 4.73167 38.8801 4.41813 39.1665 4.16675C39.4197 3.88022 39.7326 3.65266 40.0832 3.50008C40.5911 3.31678 41.1265 3.22098 41.6665 3.21675C42.4998 3.21675 42.8082 3.16675 44.9998 3.16675C47.1915 3.16675 47.4998 3.16675 48.3332 3.21675C48.8621 3.22282 49.3863 3.31862 49.8832 3.50008C50.2619 3.64062 50.6017 3.86912 50.8748 4.16675C51.1479 4.42273 51.3613 4.73569 51.4998 5.08341C51.685 5.59086 51.7809 6.12656 51.7832 6.66675C51.8248 7.50008 51.8332 7.80841 51.8332 10.0001C51.8332 12.1917 51.8248 12.5001 51.7832 13.3334ZM44.9998 5.72508C44.1547 5.72673 43.329 5.97885 42.627 6.4496C41.9251 6.92034 41.3785 7.58858 41.0562 8.36988C40.7339 9.15117 40.6504 10.0105 40.8163 10.8392C40.9822 11.6679 41.39 12.4289 41.9882 13.0259C42.5864 13.6229 43.3482 14.0293 44.1772 14.1935C45.0063 14.3578 45.8654 14.2727 46.6461 13.9489C47.4267 13.6251 48.0939 13.0771 48.5633 12.3743C49.0327 11.6714 49.2832 10.8452 49.2832 10.0001C49.2843 9.43767 49.1742 8.88059 48.9592 8.36088C48.7442 7.84117 48.4286 7.36909 48.0306 6.97179C47.6325 6.57449 47.1598 6.25981 46.6397 6.04586C46.1195 5.8319 45.5622 5.72288 44.9998 5.72508ZM44.9998 12.7751C44.451 12.7751 43.9145 12.6123 43.4581 12.3074C43.0018 12.0025 42.6461 11.5691 42.4361 11.062C42.226 10.555 42.1711 9.997 42.2782 9.45871C42.3852 8.92041 42.6495 8.42595 43.0376 8.03786C43.4257 7.64977 43.9202 7.38548 44.4585 7.2784C44.9968 7.17133 45.5547 7.22628 46.0618 7.43632C46.5688 7.64635 47.0022 8.00203 47.3072 8.45837C47.6121 8.91472 47.7748 9.45124 47.7748 10.0001C47.7748 10.3645 47.7031 10.7253 47.5636 11.062C47.4241 11.3987 47.2197 11.7046 46.9621 11.9623C46.7044 12.22 46.3985 12.4244 46.0618 12.5638C45.7251 12.7033 45.3643 12.7751 44.9998 12.7751Z" fill="white"/>
<path d="M15.6915 7.86658C15.6151 7.75349 15.512 7.66091 15.3914 7.59698C15.2708 7.53304 15.1363 7.49971 14.9998 7.49992H12.4998V5.83325H14.3332C14.5542 5.83325 14.7661 5.74545 14.9224 5.58917C15.0787 5.43289 15.1665 5.22093 15.1665 4.99992V1.66659C15.1665 1.44557 15.0787 1.23361 14.9224 1.07733C14.7661 0.921049 14.5542 0.833252 14.3332 0.833252H11.6665C10.3846 0.833252 9.15525 1.34248 8.24882 2.2489C7.3424 3.15533 6.83317 4.38471 6.83317 5.66658V7.49992H4.99984C4.77882 7.49992 4.56686 7.58772 4.41058 7.744C4.2543 7.90028 4.1665 8.11224 4.1665 8.33325V11.6666C4.1665 11.8876 4.2543 12.0996 4.41058 12.2558C4.56686 12.4121 4.77882 12.4999 4.99984 12.4999H6.83317V18.3333C6.83317 18.5543 6.92097 18.7662 7.07725 18.9225C7.23353 19.0788 7.44549 19.1666 7.6665 19.1666H11.6665C11.8875 19.1666 12.0995 19.0788 12.2558 18.9225C12.412 18.7662 12.4998 18.5543 12.4998 18.3333V12.4999H13.6665C13.8334 12.5001 13.9965 12.4501 14.1347 12.3565C14.2729 12.2629 14.3798 12.13 14.4415 11.9749L15.7748 8.64158C15.8252 8.5154 15.8439 8.37882 15.8294 8.24374C15.8148 8.10866 15.7675 7.97919 15.6915 7.86658ZM13.0998 10.8333H11.6665C11.4455 10.8333 11.2335 10.921 11.0772 11.0773C10.921 11.2336 10.8332 11.4456 10.8332 11.6666V17.4999H8.49984V11.6666C8.49984 11.4456 8.41204 11.2336 8.25576 11.0773C8.09948 10.921 7.88752 10.8333 7.6665 10.8333H5.83317V9.16658H7.6665C7.88752 9.16658 8.09948 9.07879 8.25576 8.92251C8.41204 8.76623 8.49984 8.55427 8.49984 8.33325V5.66658C8.50204 4.82741 8.83637 4.02323 9.42976 3.42984C10.0232 2.83645 10.8273 2.50212 11.6665 2.49992H13.4998V4.16658H12.8332C12.551 4.12548 12.2634 4.14273 11.9882 4.21727C11.713 4.29181 11.456 4.42204 11.2332 4.59992C11.0979 4.7415 10.9928 4.909 10.924 5.09232C10.8553 5.27565 10.8244 5.47099 10.8332 5.66658V8.33325C10.8332 8.55427 10.921 8.76623 11.0772 8.92251C11.2335 9.07879 11.4455 9.16658 11.6665 9.16658H13.7665L13.0998 10.8333Z" fill="white"/>
<path d="M88.5541 2.02315C88.3168 1.82576 88.0305 1.6964 87.7255 1.64882C87.4206 1.60124 87.1084 1.63724 86.8223 1.75297L71.8882 7.78243C71.5688 7.91384 71.297 8.13926 71.1087 8.42878C70.9204 8.7183 70.8247 9.05824 70.8341 9.40346C70.8436 9.74868 70.9578 10.0829 71.1616 10.3617C71.3654 10.6404 71.6492 10.8507 71.9753 10.9644L74.9961 12.015L76.6799 17.583C76.7028 17.6574 76.736 17.7282 76.7785 17.7934C76.785 17.8034 76.7941 17.8108 76.801 17.8205C76.8501 17.8891 76.9096 17.9498 76.9772 18.0003C76.9964 18.015 77.0148 18.0287 77.0353 18.0417C77.1144 18.0942 77.2021 18.1326 77.2943 18.1552L77.3041 18.156L77.3097 18.1584C77.3652 18.1697 77.4216 18.1754 77.4782 18.1755C77.4836 18.1755 77.4885 18.1729 77.4939 18.1728C77.5792 18.1713 77.6639 18.1566 77.7448 18.1292C77.7636 18.1228 77.7797 18.1121 77.798 18.1043C77.8583 18.0793 77.9154 18.0473 77.9682 18.0089C78.0105 17.9732 78.0528 17.9376 78.0951 17.902L80.3469 15.4159L83.7054 18.0176C84.0011 18.2478 84.365 18.3729 84.7398 18.3732C85.1324 18.3727 85.513 18.2373 85.8176 17.9895C86.1222 17.7418 86.3324 17.3968 86.413 17.0125L89.1319 3.66541C89.1935 3.36501 89.1723 3.05351 89.0705 2.76423C88.9687 2.47496 88.7902 2.2188 88.5541 2.02315ZM77.8086 12.2803C77.6931 12.3954 77.6141 12.5421 77.5816 12.7019L77.3237 13.9552L76.6703 11.7943L80.058 10.0302L77.8086 12.2803ZM84.7268 16.7L80.7578 13.6255C80.5918 13.4972 80.3835 13.4362 80.1745 13.4546C79.9654 13.473 79.771 13.5694 79.6299 13.7248L78.9087 14.5208L79.1636 13.2821L85.0661 7.37958C85.207 7.23888 85.2928 7.05237 85.3081 6.85384C85.3233 6.65532 85.2669 6.45789 85.1492 6.29734C85.0314 6.13678 84.8601 6.02371 84.6661 5.9786C84.4722 5.9335 84.2685 5.95934 84.092 6.05145L75.6209 10.462L72.5173 9.32622L87.4994 3.33254L84.7268 16.7Z" fill="white"/>
</svg>
